<svg width="195" height="265" viewBox="0 0 195 265" fill="none" xmlns="http://www.w3.org/2000/svg">
<path d="M131.273 25.9079L118.672 54.8959C112.723 68.5803 110.697 83.6284 112.817 98.3823L124.874 182.314L135.275 236.683C137.974 250.79 150.401 261 164.873 261H188.536C192.106 261 195 258.128 195 254.586C195 254.008 194.921 253.432 194.766 252.874L158.936 124.54C158.504 122.992 158.285 121.393 158.285 119.786C158.285 117.772 158.629 115.772 159.304 113.872L194.644 14.2888C194.88 13.6249 195 12.9261 195 12.2223C195 8.7858 192.192 6 188.729 6H161.778C148.517 6 136.525 13.8256 131.273 25.9079Z" fill="url(#paint0_linear_37_6)"/>
<path d="M23.9655 33.7592L0.184923 235.743C-1.61505 251.031 9.95464 264.5 24.8868 264.5C38.1057 264.5 49.0174 253.84 49.7336 240.227L50.7648 220.629C50.9085 217.896 53.0987 215.757 55.7519 215.757C58.5038 215.757 60.7372 213.461 60.7464 210.623L60.9016 162.584C60.9079 160.65 59.389 159.078 57.5132 159.078C55.5757 159.078 54.0327 157.405 54.1291 155.41L57.8275 78.7736C57.9141 76.98 59.3493 75.5715 61.0905 75.5715C62.8363 75.5715 64.2736 76.9871 64.3541 78.7857L67.8739 157.441L70.4384 216.414L72.0995 240.639C73.0212 254.081 83.8634 264.5 96.9294 264.5C111.867 264.5 123.44 251.026 121.64 235.733L97.8604 33.7592C95.5917 14.4901 79.7332 0 60.9129 0C42.0927 0 26.2341 14.4901 23.9655 33.7592Z" fill="url(#paint1_linear_37_6)"/>
<defs>
<linearGradient id="paint0_linear_37_6" x1="178.613" y1="256.953" x2="46.8051" y2="74.4505" gradientUnits="userSpaceOnUse">
<stop offset="0.168269" stop-color="#F95C4B"/>
<stop offset="0.718699" stop-color="#3B1611"/>
<stop offset="0.889423"/>
<stop offset="0.889523"/>
<stop offset="0.889623"/>
</linearGradient>
<linearGradient id="paint1_linear_37_6" x1="97.7722" y1="260.302" x2="-18.8598" y2="31.7868" gradientUnits="userSpaceOnUse">
<stop offset="0.168269" stop-color="#F95C4B"/>
<stop offset="0.718699" stop-color="#3B1611"/>
<stop offset="0.889423"/>
<stop offset="0.889523"/>
<stop offset="0.889623"/>
</linearGradient>
</defs>
</svg>
